<?xml version="1.0" encoding="utf-8"?>
<!-- Generator: Adobe Illustrator 20.0.0, SVG Export Plug-In . SVG Version: 6.00 Build 0)  -->
<svg version="1.1" id="Layer_1" xmlns="http://www.w3.org/2000/svg" xmlns:xlink="http://www.w3.org/1999/xlink" x="0px" y="0px"
	 viewBox="0 0 131 166.5" style="enable-background:new 0 0 131 166.5;" xml:space="preserve">
<style type="text/css">
	.st0{fill:#f2f1f1;}
</style>
<title>design</title>
<g id="Layer_2">
	<g id="Layer_2-2">
		<rect x="3" y="23.2" class="st0" width="16" height="7"/>
		<rect x="3" y="45.4" class="st0" width="23" height="8"/>
		<rect x="3" y="68.1" class="st0" width="16" height="8"/>
		<rect x="3" y="91.9" class="st0" width="23" height="6"/>
		<rect x="3" y="113.6" class="st0" width="16" height="8"/>
		<rect x="3" y="136.3" class="st0" width="23" height="8"/>
		<path class="st0" d="M48.6,165H5.3c-2,0-5.3-3.3-5.3-5.3V2.4C0,0.4,3.3,0,5.3,0h43.3C54.9,0,58,3.8,58,9.8V153
			C58,158.8,55.1,165,48.6,165z M8,157h40.6c2.1,0,2.4-2.1,2.4-4V9.8C51,7.9,50.7,7,48.6,7H8V157z"/>
		<path class="st0" d="M131,127.7c0,4-3.3,7.3-7.3,7.3H94.3c-4,0-7.3-3.3-7.3-7.3V10.3c0-4,3.3-7.3,7.3-7.3h29.4
			c4,0,7.3,3.3,7.3,7.3V127.7z M95,11v117h29V11H95z"/>
		<path class="st0" d="M110.1,166.5c-1.4,0-2.8-0.9-3.3-2.2l-14.6-32.9l6.7-3l11.3,25.4l11.3-25.4l6.7,3l-14.6,32.9
			C112.8,165.7,111.5,166.5,110.1,166.5z"/>
		<rect x="106" y="7" class="st0" width="7" height="121"/>
	</g>
</g>
</svg>
