<?xml version="1.0" encoding="utf-8"?>
<!-- Generator: Adobe Illustrator 20.0.0, SVG Export Plug-In . SVG Version: 6.00 Build 0)  -->
<svg version="1.1" id="Layer_1" xmlns="http://www.w3.org/2000/svg" xmlns:xlink="http://www.w3.org/1999/xlink" x="0px" y="0px"
	 viewBox="0 0 161.7 161.7" style="enable-background:new 0 0 161.7 161.7;" xml:space="preserve">
<style type="text/css">
	.st0{fill:#f2f1f1;}
</style>
<title>project_manager</title>
<g>
	<path class="st0" d="M82.2,110L82.2,110c12.7,0,23.9-8.3,27.7-20.2c5.2-1.1,9.1-5.7,9.1-11.2v-0.3c-0.1-3.1-1.4-5.9-3.6-8
		c-2.1-2-4.7-3-7.5-3.1c-5-9.4-14.9-15.4-25.7-15.4l0,0c-7.8,0-15.1,3-20.6,8.5C56.1,65.7,53,73.1,53,80.9s3,15.1,8.5,20.6
		C67.1,107,74.4,110,82.2,110z M99.2,70.6c-2.1,2.2-3.2,5.1-3.1,8.2c0.1,4.5,2.8,8.3,6.7,10.1c-2.1,5.4-6.3,9.8-11.7,12.1
		c-11.2,4.9-24.2-0.3-29-11.4c-4.9-11.2,0.3-24.2,11.4-29c10.1-4.4,21.8-0.6,27.5,8.5C100.3,69.6,99.7,70.1,99.2,70.6z M111.9,78.8
		c-0.1,1.2-0.6,2.2-1.4,3c-0.9,0.8-2,1.2-3.1,1.1c-1.2-0.1-2.2-0.6-3-1.4c-0.8-0.9-1.2-2-1.1-3.1c0.1-1.2,0.6-2.2,1.4-3
		c0.8-0.7,1.8-1.1,2.9-1.1c0.1,0,0.1,0,0.2,0l0,0C110.1,74.4,112,76.3,111.9,78.8L111.9,78.8z"/>
	<path class="st0" d="M133.3,93.7c7.1-29.3-11-58.9-40.3-65.9C64.7,21,36.2,37.6,27.9,65.1c-2.8,0.4-5.4,1.6-7.5,3.7
		c-2.4,2.4-3.8,5.7-3.8,9.1c0,6,4.2,11.1,9.8,12.5c1.5,8.3,4.8,16.1,9.8,22.8c-1.1,1.9-1.7,4.1-1.7,6.4c0,7.1,5.8,12.9,12.9,12.9
		l0,0c3.1,0,5.9-1.1,8.1-2.9c7.6,3.9,16.1,5.9,24.6,5.9l0,0C105.5,135.5,127.3,118.3,133.3,93.7z M47.4,114.6c2.7,0,5,2.2,5,5
		c0,2.7-2.2,5-5,5s-5-2.2-5-5C42.4,116.9,44.7,114.6,47.4,114.6z M47.4,106.7c-1.9,0-3.7,0.4-5.3,1.2c-3.8-5.4-6.4-11.5-7.7-18
		c4.7-1.9,8.1-6.6,8.1-12c0-3.5-1.3-6.7-3.8-9.1c-0.9-0.9-1.9-1.6-2.9-2.2c1-3.2,2.4-6.3,4.1-9.2C46.2,46.6,56.3,39,68.3,35.8
		c12.1-3.2,24.6-1.5,35.4,4.8c22.2,13,29.8,41.6,16.8,63.8c-6.3,10.8-16.4,18.4-28.4,21.6c-10.9,2.9-22.2,1.7-32.2-3.1
		c0.3-1.1,0.4-2.1,0.4-3.3C60.3,112.5,54.5,106.7,47.4,106.7z M34.5,77.9c0,2.7-2.2,5-5,5s-5-2.2-5-5c0-2.6,2.1-4.8,4.7-4.9h0.3
		C32.3,72.9,34.5,75.2,34.5,77.9z"/>
	<path class="st0" d="M143.8,30.1c1.5-2.2,2.4-4.9,2.4-7.8c0-7.6-6.2-13.8-13.8-13.8c-3.5,0-6.7,1.3-9.1,3.5
		C95.8-5,60.6-3.8,34.2,14.9C31.9,13.1,29,12,25.8,12C18.2,12,12,18.2,12,25.8c0,3.1,1.1,6,2.8,8.3C5.2,47.8-0.1,64.1,0,80.9
		c0.1,44.6,36.2,80.8,80.9,80.9c15,0,29.8-4.2,42.5-12.1c2.4,2.1,5.6,3.5,9.1,3.5c7.6,0,13.8-6.2,13.8-13.8c0-2.9-0.9-5.6-2.4-7.8
		C167.7,102,167.7,59.7,143.8,30.1z M132.5,15.5L132.5,15.5c3.8,0,6.9,3.1,6.9,6.9s-3.1,6.9-6.9,6.9c-3.8,0-6.9-3.1-6.9-6.9
		S128.7,15.5,132.5,15.5z M25.8,18.9L25.8,18.9c3.8,0,6.9,3.1,6.9,6.9s-3.1,6.9-6.9,6.9s-6.9-3.1-6.9-6.9S22,18.9,25.8,18.9z
		 M6.9,80.9c-0.1-15.2,4.7-30.1,13.4-42.5c1.7,0.7,3.6,1.2,5.5,1.2c7.6,0,13.7-6.2,13.8-13.8l0,0c0-2-0.4-3.8-1.2-5.5
		c24.1-16.9,56-17.9,81.1-2.5c-0.5,1.4-0.8,3-0.8,4.6c0,7.6,6.2,13.8,13.8,13.8c2.2,0,4.3-0.5,6.2-1.5c21.6,27,21.6,65.4,0,92.4
		c-1.9-0.9-3.9-1.5-6.2-1.5c-7.6,0-13.8,6.2-13.8,13.8c0,1.6,0.3,3.2,0.8,4.6c-11.6,7.1-25,10.9-38.6,10.9
		C40,154.9,6.9,121.7,6.9,80.9z M132.5,146.3c-3.8,0-6.9-3.1-6.9-6.9c0-3.8,3.1-6.9,6.9-6.9s6.9,3.1,6.9,6.9
		S136.3,146.3,132.5,146.3z"/>
</g>
</svg>
