<?xml version="1.0" encoding="utf-8"?>
<!-- Generator: Adobe Illustrator 20.0.0, SVG Export Plug-In . SVG Version: 6.00 Build 0)  -->
<svg version="1.1" id="Layer_1" xmlns="http://www.w3.org/2000/svg" xmlns:xlink="http://www.w3.org/1999/xlink" x="0px" y="0px"
	 viewBox="0 0 173.5 166.3" style="enable-background:new 0 0 173.5 166.3;" xml:space="preserve">
<style type="text/css">
	.st0{fill:#f2f1f1;}
</style>
<title>turnkey</title>
<g id="Layer_2">
	<g id="Layer_2-2">
		<path class="st0" d="M83.1,166.3C37.2,166.3,0,129,0,83.1c0-13.4,3.3-26.7,9.6-38.6C31,3.8,81.3-11.8,121.9,9.6
			c1.9,0.9,2.8,3.2,1.9,5.1c-0.9,1.9-3.2,2.8-5.1,1.9c-0.1-0.1-0.3-0.1-0.4-0.2C81.4-3,35.8,11.2,16.4,48
			c-9.3,17.7-11.2,38.4-5.3,57.5c12.4,39.8,54.6,62,94.4,49.6c19.1-5.9,35-19.2,44.4-36.9c9.4-17.7,11.3-38.4,5.3-57.5
			c-0.7-2,0.4-4.2,2.4-4.9c2-0.7,4.2,0.4,4.9,2.4c0,0.1,0,0.1,0.1,0.2c13.6,43.8-10.9,90.4-54.8,104C99.8,165,91.5,166.3,83.1,166.3
			z"/>
		<path class="st0" d="M82.9,127.5c-24.5,0-44.4-19.8-44.5-44.3c0-24.5,19.8-44.4,44.3-44.5c24.5,0,44.4,19.8,44.5,44.3
			c0,17.9-10.7,34.1-27.3,41.1C94.6,126.4,88.8,127.5,82.9,127.5z M82.9,46.5c-20.2,0-36.6,16.4-36.6,36.6s16.4,36.6,36.6,36.6
			s36.6-16.4,36.6-36.6c0-4.8-1-9.6-2.8-14.1C111.1,55.4,97.7,46.5,82.9,46.5L82.9,46.5z"/>
		<path class="st0" d="M104.3,82c-4.3,0-7.7-3.4-7.8-7.7c0-3.1,1.9-6,4.8-7.2c3.9-1.6,8.4,0.3,10.1,4.2c1.6,3.9-0.2,8.5-4.2,10.1
			C106.3,81.8,105.3,82,104.3,82z"/>
		<path class="st0" d="M148.5,71.6c-2.1,0-3.9-1.7-3.9-3.8c0-0.6,0.1-1.2,0.4-1.8l6.8-13.4c0.8-1.6,2.6-2.4,4.4-2l14.4,3.6
			c2,0.6,3.2,2.8,2.6,4.8c-0.6,1.9-2.5,3-4.4,2.7l-11.4-2.9l-5.4,10.7C151.2,70.8,149.9,71.6,148.5,71.6z"/>
		<path class="st0" d="M81.7,44.6c-2.1,0-3-1.7-3-3.9V33c0-2.1,0.9-3.9,3-3.9s3,1.7,3,3.9v7.7C84.7,42.9,83.8,44.6,81.7,44.6z"/>
		<path class="st0" d="M81.7,137.2c-2.1,0-3-1.7-3-3.9v-7.7c0-2.1,0.9-3.9,3-3.9s3,1.7,3,3.9v7.7C84.7,135.4,83.8,137.2,81.7,137.2z
			"/>
		<path class="st0" d="M133.1,86.9h-7.7c-2.1,0-3.9-0.9-3.9-3s1.7-3,3.9-3h7.7c2.1,0,3.9,0.9,3.9,3S135.2,86.9,133.1,86.9z"/>
		<path class="st0" d="M40.5,86.9h-7.7c-2.1,0-3.9-0.9-3.9-3s1.7-3,3.9-3h7.7c2.1,0,3.9,0.9,3.9,3S42.7,86.9,40.5,86.9z"/>
		<path class="st0" d="M112.9,57c-2.1,0-3.9-1.7-3.9-3.9c0-1,0.4-2,1.1-2.7l5.5-5.4c1.6-1.4,4-1.3,5.4,0.3c1.3,1.5,1.3,3.7,0,5.1
			l-5.4,5.5C114.9,56.6,113.9,57,112.9,57z"/>
		<path class="st0" d="M47.5,122.5c-2.1,0-3.9-1.7-3.9-3.9c0-1,0.4-2,1.1-2.7l5.5-5.4c1.6-1.4,4-1.3,5.5,0.3c1.3,1.5,1.3,3.7,0,5.1
			l-5.5,5.4C49.5,122.1,48.5,122.5,47.5,122.5z"/>
		<path class="st0" d="M118.4,122.5c-1,0-2-0.4-2.7-1.1l-5.4-5.4c-1.4-1.6-1.3-4,0.3-5.4c1.5-1.3,3.7-1.3,5.1,0l5.4,5.4
			c1.5,1.5,1.5,4,0,5.5C120.4,122.1,119.4,122.5,118.4,122.5L118.4,122.5z"/>
		<path class="st0" d="M52.9,57c-1,0-2-0.4-2.7-1.1l-5.5-5.5c-1.4-1.6-1.1-4.1,0.5-5.4c1.4-1.2,3.5-1.2,4.9,0l5.5,5.5
			c1.5,1.5,1.5,4-0.1,5.5C54.9,56.6,53.9,57,52.9,57z"/>
	</g>
</g>
</svg>
